<?xml version="1.0" encoding="UTF-8" standalone="no"?>
<svg width="224px" height="223px" viewBox="0 0 224 223" version="1.1" xmlns="http://www.w3.org/2000/svg" xmlns:xlink="http://www.w3.org/1999/xlink">
    <!-- Generator: Sketch 3.7.2 (28276) - http://www.bohemiancoding.com/sketch -->
    <title>behance</title>
    <desc>Created with Sketch.</desc>
    <defs></defs>
    <g id="Page-1" stroke="none" stroke-width="1" fill="none" fill-rule="evenodd">
        <g id="iPad-Landscape" transform="translate(-275.000000, -931.000000)">
            <g id="behance" transform="translate(275.000000, 931.000000)">
                <path d="M223.542746,111.496722 C223.542746,49.9168602 173.504396,0 111.774659,0 C50.0383498,0 0,49.9168602 0,111.496722 C0,173.076584 50.0383498,223 111.774659,223 C173.504396,223 223.542746,173.076584 223.542746,111.496722 Z" id="Fill-182" fill="#33BCE1"></path>
                <path d="M126.144302,89.0426192 L153.141904,89.0426192 L153.141904,81.0093901 L126.144302,81.0093901 L126.144302,89.0426192 Z M132.540048,106.570781 C130.819731,108.388698 129.734791,110.851485 129.291225,113.959141 L150.288694,113.959141 C150.066911,110.64267 148.975977,108.136892 147.045865,106.411099 C145.091775,104.697589 142.688126,103.843905 139.810939,103.843905 C136.693987,103.843905 134.260366,104.752864 132.540048,106.570781 L132.540048,106.570781 Z M150.762231,95.7861097 C154.017048,97.2723799 156.696428,99.6307591 158.806365,102.848964 C160.730484,105.686389 161.965277,108.978293 162.528726,112.718535 C162.858403,114.904949 162.990274,118.074021 162.936327,122.195043 L128.991518,122.195043 C129.195319,126.979359 130.801748,130.338821 133.870747,132.261146 C135.72893,133.45876 137.964744,134.060638 140.590177,134.060638 C143.353475,134.060638 145.613265,133.329787 147.345572,131.874224 C148.29864,131.081956 149.137819,129.988749 149.857116,128.588462 L162.294954,128.588462 C161.965277,131.413603 160.454754,134.29402 157.781368,137.217427 C153.609447,141.854345 147.765161,144.175874 140.254505,144.175874 C134.050571,144.175874 128.577923,142.222841 123.848547,138.304493 C119.095195,134.392286 116.733504,128.017292 116.733504,119.197936 C116.733504,110.925184 118.873412,104.580899 123.147233,100.165079 C127.433042,95.7615432 132.977621,93.5444211 139.804945,93.5444211 C143.862977,93.5444211 147.513408,94.2936978 150.762231,95.7861097 L150.762231,95.7861097 Z M73.5577211,114.131106 L73.5577211,131.346046 L88.8547637,131.346046 C91.5880911,131.346046 93.7220046,130.965266 95.2385217,130.209847 C98.0018198,128.797277 99.3804717,126.119534 99.3804717,122.152052 C99.3804717,118.786448 98.0497729,116.483344 95.3703928,115.224313 C93.871858,114.524169 91.7679153,114.155673 89.0705527,114.131106 L73.5577211,114.131106 L73.5577211,114.131106 Z M73.5577211,89.2084427 L73.5577211,103.450842 L88.8787403,103.450842 C91.6060735,103.450842 93.8298991,102.916522 95.5442228,101.847881 C97.2465583,100.779241 98.1037201,98.8876239 98.1037201,96.1853145 C98.1037201,93.1697828 96.976822,91.1860419 94.7230258,90.2156672 C92.7689365,89.5462314 90.2873629,89.2084427 87.272311,89.2084427 L73.5577211,89.2084427 L73.5577211,89.2084427 Z M107.772266,84.8786059 C109.696385,87.6239067 110.661441,90.9035278 110.661441,94.7297523 C110.661441,98.6665259 109.696385,101.84174 107.74829,104.236968 C106.657356,105.57584 105.056921,106.804162 102.94099,107.909653 C106.153849,109.113409 108.575481,111.011167 110.223869,113.609069 C111.854275,116.200829 112.675472,119.357618 112.675472,123.067152 C112.675472,126.893377 111.740386,130.326538 109.864221,133.360495 C108.677381,135.368802 107.190835,137.063887 105.404581,138.439608 C103.396545,140.018003 101.02886,141.092785 98.2895384,141.68238 C95.5502169,142.265833 92.5891123,142.548347 89.3882421,142.548347 L61,142.548347 L61,78 L91.4442318,78 C99.1287179,78.1166906 104.565402,80.4075121 107.772266,84.8786059 L107.772266,84.8786059 Z" id="Fill-183" fill="#FFFFFF"></path>
            </g>
        </g>
    </g>
</svg>