<?xml version="1.0" encoding="UTF-8" standalone="no"?>
<svg width="228px" height="265px" viewBox="0 0 228 265" version="1.1" xmlns="http://www.w3.org/2000/svg" xmlns:xlink="http://www.w3.org/1999/xlink">
    <!-- Generator: Sketch 3.7.2 (28276) - http://www.bohemiancoding.com/sketch -->
    <title>logo</title>
    <desc>Created with Sketch.</desc>
    <defs>
        <polygon id="path-1" points="113.943461 264.733319 227.88633 264.733319 227.88633 0.344945333 113.943461 0.344945333 0.000592636022 0.344945333 0.000592636022 264.733319"></polygon>
    </defs>
    <g id="Page-1" stroke="none" stroke-width="1" fill="none" fill-rule="evenodd">
        <g id="iPad-Landscape" transform="translate(-398.000000, -153.000000)">
            <g id="logo" transform="translate(398.000000, 153.000000)">
                <mask id="mask-2" fill="white">
                    <use xlink:href="#path-1"></use>
                </mask>
                <g id="Clip-2"></g>
                <path d="M174.034087,201.095886 C164.937124,224.218474 126.237992,256.268061 114.527504,256.481172 L113.83412,256.421974 L113.348158,256.481172 C101.631744,256.256221 62.9563173,224.206634 53.853428,201.095886 C52.8459468,198.52671 51.8918028,195.537231 50.9791433,192.204405 L176.902445,192.204405 C176.001639,195.537231 175.047495,198.52671 174.034087,201.095886 L174.034087,201.095886 Z M37.4729683,81.854137 L190.414547,81.854137 C189.993775,89.3485546 188.968515,105.769972 187.208386,124.464578 C186.734277,129.508214 186.212757,134.711685 185.626048,139.962513 C185.608269,140.128266 185.584563,140.299939 185.566784,140.465692 C184.956369,145.905953 184.292617,151.381732 183.551822,156.745036 L44.3297671,156.745036 C42.8363243,145.817156 41.6036414,134.439376 40.6139393,123.819324 L40.6139393,123.819324 C38.8952948,105.391107 37.8937399,89.2597582 37.4729683,81.854137 L37.4729683,81.854137 Z M227.886922,192.204405 L194.408913,135.836439 C197.502473,106.57506 198.79442,79.9657332 198.889242,77.9234156 L199.096664,73.6019899 L157.446205,73.6019899 L113.940794,0.344945333 L70.4413103,73.6019899 L28.796777,73.6019899 L28.9982732,77.9234156 C29.093095,79.9657332 30.3850415,106.57506 33.4786015,135.830519 L0.000592636022,192.204405 L42.46889,192.204405 C43.6186039,196.691584 44.8453605,200.734781 46.1728652,204.103125 C55.5365143,227.906485 96.4165471,264.733319 113.472612,264.733319 C114.100806,264.721479 114.254891,264.733319 114.414903,264.733319 C131.465042,264.733319 172.356927,227.906485 181.720576,204.103125 C183.042155,200.734781 184.274837,196.691584 185.418625,192.204405 L227.886922,192.204405 Z" id="Fill-1" fill="#176B90" mask="url(#mask-2)"></path>
            </g>
        </g>
    </g>
</svg>