<?xml version="1.0" encoding="UTF-8" standalone="no"?>
<svg width="224px" height="223px" viewBox="0 0 224 223" version="1.1" xmlns="http://www.w3.org/2000/svg" xmlns:xlink="http://www.w3.org/1999/xlink">
    <!-- Generator: Sketch 3.7.2 (28276) - http://www.bohemiancoding.com/sketch -->
    <title>Button-Fill-White</title>
    <desc>Created with Sketch.</desc>
    <defs></defs>
    <g id="Page-1" stroke="none" stroke-width="1" fill="none" fill-rule="evenodd">
        <g id="iPad-Landscape" transform="translate(-525.000000, -931.000000)" fill="#FFFFFF">
            <g id="Button-Fill-White" transform="translate(525.564397, 931.000000)">
                <polygon id="Fill-2" points="54.6836491 101.464059 54.6836491 121.256956 69.5157574 111.360743"></polygon>
                <polygon id="Fill-3" points="105.87739 87.0972135 105.87739 59.5148422 59.4300181 90.4022241 80.1779919 104.247984"></polygon>
                <polygon id="Fill-4" points="164.181724 90.402177 117.733881 59.5147951 117.733881 87.0971665 143.435166 104.247936"></polygon>
                <polygon id="Fill-5" points="59.4298766 132.318979 105.877249 163.206361 105.877249 135.623519 80.178322 118.476983"></polygon>
                <polygon id="Fill-6" points="117.733739 135.623707 117.733739 163.206549 164.181583 132.319167 143.435024 118.477171"></polygon>
                <polygon id="Fill-7" points="111.804999 97.3702213 90.83867 111.360413 111.804999 125.351076 132.772742 111.360413"></polygon>
                <g id="Group-12">
                    <path d="M180.782462,132.326318 C180.782462,132.586955 180.764069,132.843829 180.729641,133.100702 C180.716908,133.183974 180.696629,133.27101 180.68248,133.354282 C180.651826,133.520827 180.622586,133.687371 180.578726,133.850151 C180.553731,133.948008 180.517417,134.04163 180.486291,134.136194 C180.43913,134.280626 180.392441,134.426 180.334433,134.570903 C180.294346,134.668289 180.244827,134.762381 180.201911,134.856474 C180.138243,134.990557 180.07269,135.120405 180.000534,135.251194 C179.947242,135.341523 179.887819,135.432322 179.831226,135.522651 C179.751524,135.645913 179.670407,135.765411 179.581273,135.881145 C179.515719,135.971474 179.448751,136.054746 179.376595,136.138019 C179.283688,136.246225 179.185593,136.354903 179.08231,136.456052 C179.004023,136.536031 178.927623,136.61554 178.846506,136.687991 C178.739451,136.785848 178.625321,136.879941 178.509305,136.97027 C178.421586,137.039428 178.33481,137.108116 178.241903,137.17304 C178.207947,137.195151 178.177292,137.22385 178.142393,137.245491 L115.094378,179.177019 C114.09834,179.839432 112.953273,180.17205 111.804904,180.17205 C110.660309,180.17205 109.513356,179.839432 108.517317,179.177019 L45.4674155,137.245491 C45.4344029,137.22385 45.4037483,137.195151 45.3712073,137.17304 C45.2783003,137.108116 45.1896377,137.039428 45.10239,136.97027 C44.9863742,136.879941 44.8736596,136.785848 44.7666043,136.687991 C44.6850159,136.61554 44.6072004,136.536031 44.5289133,136.456052 C44.4256309,136.354903 44.3298942,136.246225 44.2332143,136.138019 C44.1643594,136.054746 44.0955045,135.971474 44.0304224,135.881145 C43.9431747,135.765411 43.8596999,135.645913 43.7814128,135.522651 C43.7215184,135.432322 43.6653969,135.341523 43.6111618,135.251194 C43.538534,135.120405 43.473452,134.990557 43.4097847,134.856474 C43.3645103,134.762381 43.3187642,134.668289 43.2772626,134.570903 C43.2192546,134.426 43.1702073,134.280626 43.1249328,134.136194 C43.0923918,134.04163 43.0598507,133.948008 43.0324974,133.850151 C42.9886377,133.687371 42.9598696,133.520827 42.9287434,133.354282 C42.9145951,133.27101 42.8929011,133.183974 42.8815825,133.100702 C42.847155,132.843829 42.8273474,132.586955 42.8273474,132.326318 L42.8273474,90.3947907 C42.8273474,90.1341536 42.847155,89.8772802 42.8815825,89.6237 C42.8929011,89.5371346 42.9145951,89.4538624 42.9287434,89.3668266 C42.9598696,89.2002823 42.9886377,89.033738 43.0324974,88.8709574 C43.0598507,88.7731008 43.0923918,88.679008 43.1249328,88.5849152 C43.1702073,88.4400122 43.2192546,88.2955797 43.2772626,88.15397 C43.3187642,88.056584 43.3645103,87.9587274 43.4097847,87.8646346 C43.473452,87.7305523 43.538534,87.6002338 43.6111618,87.4736789 C43.6653969,87.3795861 43.7215184,87.289257 43.7814128,87.1984574 C43.8596999,87.0756662 43.9431747,86.9561684 44.0304224,86.8399637 C44.0955045,86.7533983 44.1643594,86.6663624 44.2332143,86.5835608 C44.3298942,86.4748835 44.4256309,86.3662063 44.5289133,86.2645861 C44.6072004,86.1850776 44.6850159,86.1055692 44.7666043,86.0331177 C44.8736596,85.9352612 44.9863742,85.8411684 45.10239,85.7503688 C45.1896377,85.681681 45.2783003,85.6129932 45.3712073,85.5480692 C45.4037483,85.5259574 45.4344029,85.4972591 45.4674155,85.4756177 L108.517317,43.5440903 C110.509394,42.2192633 113.10183,42.2192633 115.094378,43.5440903 L178.142393,85.4756177 C178.177292,85.4972591 178.207947,85.5259574 178.241903,85.5480692 C178.33481,85.6129932 178.421586,85.681681 178.509305,85.7503688 C178.625321,85.8411684 178.739451,85.9352612 178.846506,86.0331177 C178.927623,86.1055692 179.004023,86.1850776 179.08231,86.2645861 C179.185593,86.3662063 179.283688,86.4748835 179.376595,86.5835608 C179.448751,86.6663624 179.515719,86.7533983 179.581273,86.8399637 C179.670407,86.9561684 179.751524,87.0756662 179.831226,87.1984574 C179.887819,87.289257 179.947242,87.3795861 180.000534,87.4736789 C180.07269,87.6002338 180.138243,87.7305523 180.201911,87.8646346 C180.244827,87.9587274 180.294346,88.056584 180.334433,88.15397 C180.392441,88.2955797 180.43913,88.4400122 180.486291,88.5849152 C180.517417,88.679008 180.553731,88.7731008 180.578726,88.8709574 C180.622586,89.033738 180.651826,89.2002823 180.68248,89.3668266 C180.696629,89.4538624 180.716908,89.5371346 180.729641,89.6237 C180.764069,89.8772802 180.782462,90.1341536 180.782462,90.3947907 L180.782462,132.326318 Z M111.804904,0.0727337553 C50.1952975,0.0727337553 0.247641975,49.897238 0.247641975,111.360554 C0.247641975,172.824341 50.1952975,222.646493 111.804904,222.646493 C173.418284,222.646493 223.363582,172.824341 223.363582,111.360554 C223.363582,49.897238 173.418284,0.0727337553 111.804904,0.0727337553 L111.804904,0.0727337553 Z" id="Fill-8"></path>
                    <polygon id="Fill-10" points="168.927716 121.257097 168.927716 101.4642 154.097966 111.360413"></polygon>
                </g>
            </g>
        </g>
    </g>
</svg>