<?xml version="1.0" encoding="utf-8"?>
<!-- Generator: Adobe Illustrator 19.2.0, SVG Export Plug-In . SVG Version: 6.00 Build 0)  -->
<!DOCTYPE svg PUBLIC "-//W3C//DTD SVG 1.1//EN" "http://www.w3.org/Graphics/SVG/1.1/DTD/svg11.dtd">
<svg version="1.1" id="Layer_1" xmlns="http://www.w3.org/2000/svg" xmlns:xlink="http://www.w3.org/1999/xlink" x="0px" y="0px"
	 viewBox="0 0 231 537" style="enable-background:new 0 0 231 537;" xml:space="preserve">
<style type="text/css">
	.st0{fill:#22779C;}
</style>
<title>overlay logo</title>
<desc>Created with Sketch.</desc>
<g id="Clip-2">
</g>
<path class="st0" d="M231,519.6l-0.3,0l-1,0.1c-23.7-0.5-102.1-65.4-120.6-112.2c-2-5.2-4-11.3-5.8-18H231v-71.9H89.8
	c-3-22.1-5.5-45.2-7.5-66.7c-3.5-37.3-5.5-70-6.4-85H231V0.9l-0.1-0.2l-88.1,148.4H58.4l0.4,8.8c0.2,4.1,2.8,58.1,9.1,117.3L0,389.5
	h86.1c2.3,9.1,4.8,17.3,7.5,24.1c19,48.2,101.8,122.9,136.4,122.9c0.5,0,0.8,0,1.1,0V519.6z"/>
</svg>
